<svg xmlns="http://www.w3.org/2000/svg" viewBox="0 0 131.52 40.86"><defs><style>.cls-1{fill:#243e81;}</style></defs><g id="Layer_2" data-name="Layer 2"><g id="Layer_1-2" data-name="Layer 1"><path class="cls-1" d="M44.5,19.27l-.22-3.22a1,1,0,0,0-.14-.5.63.63,0,0,0-.37-.25l-.2-.05a.6.6,0,0,1-.31-.16.4.4,0,0,1-.09-.27.38.38,0,0,1,.11-.28.48.48,0,0,1,.33-.1h2.23a.48.48,0,0,1,.33.1.34.34,0,0,1,.11.28.36.36,0,0,1-.1.27.88.88,0,0,1-.31.16l-.19.05a.72.72,0,0,0-.44.3,1,1,0,0,0-.09.52l.24,3.13c0,.21,0,.43,0,.63s0,.43,0,.65a2.69,2.69,0,0,1-.36,1.41,2.53,2.53,0,0,1-1.14,1,4.37,4.37,0,0,1-2,.37A5.09,5.09,0,0,1,40,23a2.57,2.57,0,0,1-1.19-1,2.6,2.6,0,0,1-.4-1.46c0-.08,0-.18,0-.29l0-.46c0-.19,0-.42,0-.7l.21-3.38a.35.35,0,0,0-.06-.26.44.44,0,0,0-.29-.14l-.25-.06c-.27-.06-.41-.21-.41-.43a.35.35,0,0,1,.12-.28.45.45,0,0,1,.33-.1H41.8a.49.49,0,0,1,.34.1.38.38,0,0,1,.11.28.36.36,0,0,1-.1.27.6.6,0,0,1-.3.16l-.27.06a.35.35,0,0,0-.23.13.4.4,0,0,0-.08.26l-.21,3.42c0,.26,0,.49,0,.71s0,.4,0,.56a2.14,2.14,0,0,0,.43,1.52,1.56,1.56,0,0,0,1.19.47,2,2,0,0,0,1-.23,1.51,1.51,0,0,0,.66-.64,1.9,1.9,0,0,0,.23-1c0-.29,0-.53,0-.72S44.51,19.43,44.5,19.27Z"/><path class="cls-1" d="M50.45,21.79a.41.41,0,0,0,.08.25.48.48,0,0,0,.23.14l.26.09a.4.4,0,0,1,.29.41.34.34,0,0,1-.11.28.59.59,0,0,1-.36.1H47.5a.59.59,0,0,1-.36-.1.34.34,0,0,1-.11-.28.41.41,0,0,1,.29-.41l.26-.09a.51.51,0,0,0,.24-.14.41.41,0,0,0,.07-.25V15.7a.36.36,0,0,0-.07-.24.62.62,0,0,0-.24-.15l-.26-.09a.41.41,0,0,1-.29-.41.34.34,0,0,1,.11-.28.6.6,0,0,1,.36-.09h3.34a.6.6,0,0,1,.36.09.34.34,0,0,1,.11.28.4.4,0,0,1-.29.41l-.26.09a.57.57,0,0,0-.23.15.36.36,0,0,0-.08.24Z"/><path class="cls-1" d="M55.35,19.5c-.09.21-.2.46-.31.74s-.24.59-.36.91-.24.64-.37,1l-.36,1c-.12.31-.23.6-.34.87a7,7,0,0,1-.3.7A.51.51,0,0,1,53,25a.86.86,0,0,1-.55-.08A.93.93,0,0,1,52,24.5.54.54,0,0,1,52,24c.09-.2.2-.43.33-.68s.27-.54.43-.83l.48-.9.49-.92c.16-.3.31-.59.44-.86s.26-.51.36-.72.2-.47.32-.75.23-.58.35-.9.24-.64.37-1,.24-.65.36-1,.24-.61.35-.87.2-.51.29-.7a.53.53,0,0,1,.36-.31.75.75,0,0,1,.55.08.88.88,0,0,1,.42.38.52.52,0,0,1,0,.47c-.08.2-.19.43-.32.69l-.44.83c-.16.29-.32.6-.49.9l-.48.92-.45.85C55.57,19,55.45,19.28,55.35,19.5Z"/><path class="cls-1" d="M65.2,19.27,65,16.05a.9.9,0,0,0-.14-.5.64.64,0,0,0-.36-.25l-.21-.05a.64.64,0,0,1-.31-.16.4.4,0,0,1-.09-.27.35.35,0,0,1,.12-.28.44.44,0,0,1,.32-.1h2.23a.48.48,0,0,1,.33.1.35.35,0,0,1,.12.28.36.36,0,0,1-.1.27,1,1,0,0,1-.31.16l-.2.05a.75.75,0,0,0-.44.3.91.91,0,0,0-.08.52l.24,3.13c0,.21,0,.43,0,.63s0,.43,0,.65a2.7,2.7,0,0,1-.37,1.41,2.56,2.56,0,0,1-1.13,1,4.43,4.43,0,0,1-2,.37,5.06,5.06,0,0,1-2-.34,2.65,2.65,0,0,1-1.2-1,2.6,2.6,0,0,1-.4-1.46c0-.08,0-.18,0-.29l0-.46c0-.19,0-.42,0-.7l.21-3.38a.35.35,0,0,0-.06-.26.46.46,0,0,0-.29-.14l-.26-.06c-.27-.06-.41-.21-.41-.43a.35.35,0,0,1,.12-.28.48.48,0,0,1,.33-.1H62.5a.48.48,0,0,1,.33.1.34.34,0,0,1,.11.28.4.4,0,0,1-.09.27.69.69,0,0,1-.31.16l-.27.06a.35.35,0,0,0-.23.13.57.57,0,0,0-.08.26l-.2,3.42c0,.26,0,.49,0,.71s0,.4,0,.56a2.19,2.19,0,0,0,.43,1.52,1.57,1.57,0,0,0,1.2.47,2.08,2.08,0,0,0,1-.23,1.63,1.63,0,0,0,.66-.64,2.11,2.11,0,0,0,.23-1c0-.29,0-.53,0-.72S65.21,19.43,65.2,19.27Z"/><path class="cls-1" d="M70.84,18.54l.89.32-2,2.68a.68.68,0,0,0-.19.47.32.32,0,0,0,.23.25l.12,0a.46.46,0,0,1,.2.15.36.36,0,0,1,.06.22A.34.34,0,0,1,70,23a.5.5,0,0,1-.33.1H67.8a.56.56,0,0,1-.35-.1.4.4,0,0,1,0-.5.73.73,0,0,1,.26-.2,1.93,1.93,0,0,0,.45-.28,2.24,2.24,0,0,0,.35-.34l.35-.43Zm4.25,3.15a2.28,2.28,0,0,0,.23.3.74.74,0,0,0,.2.16l.26.12a.61.61,0,0,1,.24.17.32.32,0,0,1,.08.24A.34.34,0,0,1,76,23a.59.59,0,0,1-.36.1H72a.59.59,0,0,1-.36-.1.38.38,0,0,1-.11-.28.38.38,0,0,1,.08-.26.66.66,0,0,1,.27-.17.44.44,0,0,0,.21-.15.35.35,0,0,0,0-.25,1,1,0,0,0-.15-.32l-3.74-5.81-.17-.23a.75.75,0,0,0-.16-.15l-.23-.12a.67.67,0,0,1-.24-.17.43.43,0,0,1-.06-.24.34.34,0,0,1,.11-.28.6.6,0,0,1,.36-.09h3.47a.49.49,0,0,1,.35.1.36.36,0,0,1,.1.27.58.58,0,0,1-.05.25.26.26,0,0,1-.18.14l-.2.05c-.11,0-.17.09-.18.17a.56.56,0,0,0,.13.33Zm-2.63-2.86-.9-.26L73.45,16a.71.71,0,0,0,.18-.46.36.36,0,0,0-.24-.27l-.16-.06a.49.49,0,0,1-.19-.16.41.41,0,0,1-.08-.25.38.38,0,0,1,.11-.28.55.55,0,0,1,.34-.09h1.86c.31,0,.47.12.47.37a.33.33,0,0,1-.1.24,1,1,0,0,1-.32.22,1.27,1.27,0,0,0-.42.33l-.53.67Z"/><path class="cls-1" d="M81.8,19.25a1.86,1.86,0,0,0-.24.55,2.43,2.43,0,0,0-.09.65,2.31,2.31,0,0,0,.15.86,1.37,1.37,0,0,0,.43.59,1,1,0,0,0,.66.21,1.53,1.53,0,0,0,.72-.17,1.49,1.49,0,0,0,.57-.55l.47.39a3.58,3.58,0,0,1-1.12,1.08,3,3,0,0,1-1.55.38A3.57,3.57,0,0,1,80.29,23a2.21,2.21,0,0,1-.93-.75A1.88,1.88,0,0,1,79,21.15,1.93,1.93,0,0,1,79.39,20a2.66,2.66,0,0,1,1-.86,4.27,4.27,0,0,1,1.67-.41l.06.26A.46.46,0,0,0,81.8,19.25Zm.79-4a2,2,0,0,0-.18.9,2.78,2.78,0,0,0,.23,1.15,1.27,1.27,0,0,0,.74.68,5.12,5.12,0,0,1,.57.25,2.44,2.44,0,0,1,.51.35,4.93,4.93,0,0,1,.52.56L87.25,22a1,1,0,0,0,.26.22.92.92,0,0,0,.27.08.66.66,0,0,1,.28.11.3.3,0,0,1,.1.26A.34.34,0,0,1,88,23a.49.49,0,0,1-.34.1H85.54a1.25,1.25,0,0,1-.45-.08,1,1,0,0,1-.36-.28l-2.3-2.82a5.46,5.46,0,0,0-.63-.7,1.6,1.6,0,0,0-.38-.26A2.11,2.11,0,0,1,80,16.86a2.32,2.32,0,0,1,.39-1.31,2.55,2.55,0,0,1,1.12-.93,4.33,4.33,0,0,1,1.83-.34,4.14,4.14,0,0,1,1.52.25,2.28,2.28,0,0,1,1,.69,1.73,1.73,0,0,1,.06,2,2.25,2.25,0,0,1-1,.7,6.78,6.78,0,0,1-1.81.43l0-.29a.89.89,0,0,0,.58-.6,3.54,3.54,0,0,0,.17-1.2,2.09,2.09,0,0,0-.2-1,.57.57,0,0,0-1.07,0Zm3.33,4.91a1.23,1.23,0,0,0,.24-.47.54.54,0,0,0,0-.38.45.45,0,0,0-.25-.24L85.69,19a.36.36,0,0,1-.17-.15.32.32,0,0,1-.06-.18.35.35,0,0,1,.13-.27.45.45,0,0,1,.31-.12h1.66c.31,0,.46.13.46.37a.49.49,0,0,1-.06.25.87.87,0,0,1-.24.22,2,2,0,0,0-.42.33,9,9,0,0,0-.59.68l-.74,1-.4-.46Z"/><path class="cls-1" d="M45.64,37.62a.51.51,0,0,1-.11.35.45.45,0,0,1-.33.11.6.6,0,0,1-.34-.11,1.76,1.76,0,0,1-.3-.24l-.27-.24a.35.35,0,0,0-.25-.11.56.56,0,0,0-.32.11l-.42.24a3,3,0,0,1-.59.24,3.05,3.05,0,0,1-.85.1,4.51,4.51,0,0,1-1.77-.32,3.53,3.53,0,0,1-1.32-.92,4,4,0,0,1-.83-1.43,5.67,5.67,0,0,1-.29-1.86A4.91,4.91,0,0,1,38,31.72a4.49,4.49,0,0,1,.92-1.44,4.22,4.22,0,0,1,1.39-1A4.48,4.48,0,0,1,42,29a3.9,3.9,0,0,1,1,.11,4.22,4.22,0,0,1,.61.21.93.93,0,0,0,.39.1.36.36,0,0,0,.27-.1l.22-.19a.43.43,0,0,1,.28-.1.3.3,0,0,1,.23.09.8.8,0,0,1,.16.31l.62,2.18a.43.43,0,0,1,0,.32.48.48,0,0,1-.26.18.49.49,0,0,1-.34,0,.48.48,0,0,1-.24-.26,3.73,3.73,0,0,0-.72-1.18,2.25,2.25,0,0,0-.86-.59,2.69,2.69,0,0,0-.93-.17,1.83,1.83,0,0,0-1.17.39,2.54,2.54,0,0,0-.76,1.13,5.19,5.19,0,0,0-.26,1.72,6,6,0,0,0,.31,2.1,2.81,2.81,0,0,0,.85,1.27,2,2,0,0,0,1.23.43,1,1,0,0,0,.33,0,.74.74,0,0,0,.23-.14.6.6,0,0,0,.14-.21.77.77,0,0,0,0-.27V34.8a.32.32,0,0,0-.06-.2.7.7,0,0,0-.26-.12l-.29-.08a.67.67,0,0,1-.28-.14.37.37,0,0,1-.09-.25.35.35,0,0,1,.11-.26.6.6,0,0,1,.36-.09h3a.6.6,0,0,1,.36.09.31.31,0,0,1,.11.26.35.35,0,0,1-.07.23.64.64,0,0,1-.22.14l-.16.06a.54.54,0,0,0-.21.13.32.32,0,0,0-.07.23Z"/><path class="cls-1" d="M49.82,32.28,50,33.6v3a.55.55,0,0,0,.06.29.42.42,0,0,0,.27.13l.48.08a.54.54,0,0,1,.24.12.32.32,0,0,1,.08.24.28.28,0,0,1-.11.25.47.47,0,0,1-.32.09h-3.2a.47.47,0,0,1-.32-.09.3.3,0,0,1-.1-.24.32.32,0,0,1,.06-.2.37.37,0,0,1,.18-.14l.17-.06a.29.29,0,0,0,.13-.14.88.88,0,0,0,0-.33V33.58a.59.59,0,0,0-.05-.27.24.24,0,0,0-.15-.1l-.18,0a.27.27,0,0,1-.17-.11.28.28,0,0,1-.06-.18.33.33,0,0,1,.08-.22.68.68,0,0,1,.26-.15L48.63,32a3.28,3.28,0,0,1,.56-.2,1.31,1.31,0,0,1,.27-.05.27.27,0,0,1,.24.12A.74.74,0,0,1,49.82,32.28Zm-.08,2.22A4.2,4.2,0,0,1,50,33a2.08,2.08,0,0,1,.65-.91,1.43,1.43,0,0,1,.87-.3,1.23,1.23,0,0,1,1,.38,1.65,1.65,0,0,1,.33,1.12,1.71,1.71,0,0,1-.29,1.09.94.94,0,0,1-1.72-.59v-.24a.45.45,0,0,0-.07-.26.27.27,0,0,0-.22-.09.35.35,0,0,0-.26.13.93.93,0,0,0-.19.4,2.81,2.81,0,0,0-.07.72Z"/><path class="cls-1" d="M53.31,36.53a1.51,1.51,0,0,1,.73-1.3,3.63,3.63,0,0,1,2.05-.49,3.1,3.1,0,0,1,.64.06,1.32,1.32,0,0,1,.45.15l-.18.49-.28-.12a1.45,1.45,0,0,0-.3,0,.75.75,0,0,0-.55.22.91.91,0,0,0-.2.62,1,1,0,0,0,.19.63.6.6,0,0,0,.49.22.82.82,0,0,0,.4-.1.84.84,0,0,0,.3-.25l.14.45a2,2,0,0,1-.85.69,2.93,2.93,0,0,1-1.18.24,2,2,0,0,1-1.34-.41A1.31,1.31,0,0,1,53.31,36.53ZM57,37v-.13H56.8V33a.69.69,0,0,0-.14-.45.53.53,0,0,0-.41-.16.62.62,0,0,0-.34.09.3.3,0,0,0-.14.25v.64a.9.9,0,0,1-.32.74,1.37,1.37,0,0,1-.91.27,1.07,1.07,0,0,1-.75-.23.75.75,0,0,1-.25-.61,1.22,1.22,0,0,1,.35-.8,2.46,2.46,0,0,1,1-.66,4.91,4.91,0,0,1,1.75-.27,3,3,0,0,1,1.84.48,1.53,1.53,0,0,1,.6,1.28v3a.33.33,0,0,0,.06.21.19.19,0,0,0,.18.08.23.23,0,0,0,.17,0l.12-.12.08-.08.1,0a.17.17,0,0,1,.14.06.34.34,0,0,1,0,.18,1,1,0,0,1-.18.53,1.42,1.42,0,0,1-.54.48,1.83,1.83,0,0,1-.89.19,1.81,1.81,0,0,1-1-.27A.87.87,0,0,1,57,37Z"/><path class="cls-1" d="M63.23,32.28v.58l.11.21v6.44a.92.92,0,0,0,0,.33.25.25,0,0,0,.13.14l.18.06a.35.35,0,0,1,.25.34.3.3,0,0,1-.1.24.45.45,0,0,1-.32.09H60.84a.5.5,0,0,1-.33-.09.33.33,0,0,1-.1-.24.32.32,0,0,1,.06-.2.45.45,0,0,1,.19-.14l.17-.06a.25.25,0,0,0,.13-.14.92.92,0,0,0,0-.33V33.56a.62.62,0,0,0,0-.27.27.27,0,0,0-.15-.1l-.18,0a.33.33,0,0,1-.18-.11.35.35,0,0,1,0-.18.28.28,0,0,1,.07-.21,1,1,0,0,1,.27-.16l1.2-.51a2.78,2.78,0,0,1,.45-.16,1.39,1.39,0,0,1,.32-.05.54.54,0,0,1,.4.14A.52.52,0,0,1,63.23,32.28Zm-.32,1.65-.38-.4a4.6,4.6,0,0,1,1.15-1.3,2.37,2.37,0,0,1,1.44-.47,2.24,2.24,0,0,1,1.28.38,2.49,2.49,0,0,1,.89,1,3.37,3.37,0,0,1,.33,1.52,3.62,3.62,0,0,1-.4,1.75,3,3,0,0,1-1.08,1.15,2.92,2.92,0,0,1-1.55.41,2.47,2.47,0,0,1-1.27-.31,2.8,2.8,0,0,1-.93-1L63,36.3a2.09,2.09,0,0,0,.55.61,1,1,0,0,0,.6.19.79.79,0,0,0,.56-.22,1.45,1.45,0,0,0,.38-.69,4.79,4.79,0,0,0,.13-1.25,3.75,3.75,0,0,0-.14-1.16,1.31,1.31,0,0,0-.37-.64.8.8,0,0,0-.54-.21,1,1,0,0,0-.66.24A2.19,2.19,0,0,0,62.91,33.93Z"/><path class="cls-1" d="M71.24,29.08v7.56a.78.78,0,0,0,.05.32.27.27,0,0,0,.13.15l.15.06a.34.34,0,0,1,.19.31q0,.36-.42.36h-2.6a.44.44,0,0,1-.31-.09.3.3,0,0,1-.1-.24.39.39,0,0,1,0-.2.35.35,0,0,1,.19-.14l.16-.06a.32.32,0,0,0,.14-.14,1.22,1.22,0,0,0,0-.33V30.36a.54.54,0,0,0,0-.26.25.25,0,0,0-.15-.11l-.18,0a.41.41,0,0,1-.18-.12.26.26,0,0,1,0-.18.28.28,0,0,1,.07-.21.79.79,0,0,1,.27-.16l1.3-.5.46-.17a1.37,1.37,0,0,1,.34,0,.47.47,0,0,1,.38.14A.52.52,0,0,1,71.24,29.08ZM71,33.74l-.34-.36.2-.19a6.79,6.79,0,0,1,1.43-1.11,2.53,2.53,0,0,1,1.14-.32,1.67,1.67,0,0,1,1.28.53,2,2,0,0,1,.48,1.4v3a.78.78,0,0,0,0,.32.26.26,0,0,0,.14.15l.15.06a.35.35,0,0,1,.19.14.31.31,0,0,1,0,.2.32.32,0,0,1-.09.24.47.47,0,0,1-.32.09H72.8q-.42,0-.42-.36a.34.34,0,0,1,.19-.31l.15-.06a.33.33,0,0,0,.14-.15,1.08,1.08,0,0,0,0-.32V34a.91.91,0,0,0-.2-.64.71.71,0,0,0-.55-.21,1.29,1.29,0,0,0-.45.09,1.22,1.22,0,0,0-.44.28Z"/><path class="cls-1" d="M79.37,32.28v4.36a.92.92,0,0,0,0,.33.25.25,0,0,0,.13.14l.16.06a.35.35,0,0,1,.19.14.31.31,0,0,1,0,.2.3.3,0,0,1-.1.24.44.44,0,0,1-.31.09H76.86a.44.44,0,0,1-.31-.09.3.3,0,0,1-.1-.24.32.32,0,0,1,.06-.2.3.3,0,0,1,.18-.14l.16-.06A.27.27,0,0,0,77,37a1.22,1.22,0,0,0,0-.33V33.56a.62.62,0,0,0,0-.27.24.24,0,0,0-.15-.1l-.18,0a.33.33,0,0,1-.18-.11.35.35,0,0,1,0-.18.32.32,0,0,1,.07-.22.8.8,0,0,1,.27-.15L78.07,32a3.7,3.7,0,0,1,.46-.16,1.32,1.32,0,0,1,.31-.05.5.5,0,0,1,.39.14A.53.53,0,0,1,79.37,32.28Zm-1.3-1.15a1.55,1.55,0,0,1-1-.3,1,1,0,0,1-.36-.83,1,1,0,0,1,.36-.81,1.55,1.55,0,0,1,1-.3,1.52,1.52,0,0,1,1,.3,1,1,0,0,1,.36.81,1,1,0,0,1-.36.83A1.52,1.52,0,0,1,78.07,31.13Z"/><path class="cls-1" d="M86.42,33.61a1,1,0,0,1-.31.74,1.2,1.2,0,0,1-.86.3,1,1,0,0,1-.77-.28,1,1,0,0,1-.27-.73v-.2A1,1,0,0,0,84,32.8a.59.59,0,0,0-.49-.24.69.69,0,0,0-.46.18,1.23,1.23,0,0,0-.35.53,2.6,2.6,0,0,0-.13.9,2.63,2.63,0,0,0,.25,1.22,1.73,1.73,0,0,0,.66.75,1.85,1.85,0,0,0,1,.25,2.19,2.19,0,0,0,.75-.12,1.66,1.66,0,0,0,.61-.44,2.23,2.23,0,0,1,.24-.2.37.37,0,0,1,.16-.05.18.18,0,0,1,.17.11.68.68,0,0,1,0,.27,1.76,1.76,0,0,1-.36,1,2.44,2.44,0,0,1-1,.74A3.38,3.38,0,0,1,83.7,38a3.59,3.59,0,0,1-1.63-.36,3,3,0,0,1-1.13-1A2.93,2.93,0,0,1,80.53,35a3.53,3.53,0,0,1,.4-1.68,2.94,2.94,0,0,1,1.15-1.17,3.39,3.39,0,0,1,1.75-.43,3.44,3.44,0,0,1,1.38.25,2.18,2.18,0,0,1,.9.67A1.51,1.51,0,0,1,86.42,33.61Z"/><path class="cls-1" d="M89.86,37.46a.41.41,0,0,1,.3-.41l.26-.09a.48.48,0,0,0,.23-.14.4.4,0,0,0,.07-.24v-6.1a.36.36,0,0,0-.07-.24.57.57,0,0,0-.23-.15L90.16,30a.41.41,0,0,1-.3-.41.34.34,0,0,1,.11-.27.53.53,0,0,1,.36-.1h3.61a5.63,5.63,0,0,1,2,.34,4.57,4.57,0,0,1,1.58,1,4.39,4.39,0,0,1,1,1.46,4.94,4.94,0,0,1,.35,1.87,3.93,3.93,0,0,1-.54,2.06,3.73,3.73,0,0,1-1.52,1.42,4.84,4.84,0,0,1-2.32.52H90.33a.59.59,0,0,1-.36-.1A.38.38,0,0,1,89.86,37.46ZM94.21,37a1.71,1.71,0,0,0,1.05-.34A2.17,2.17,0,0,0,96,35.65a5.26,5.26,0,0,0,.27-1.84,6.47,6.47,0,0,0-.18-1.6A3.51,3.51,0,0,0,95.56,31a2.25,2.25,0,0,0-.82-.75A2.28,2.28,0,0,0,93.65,30h-.36v6.37a.63.63,0,0,0,.17.49A.7.7,0,0,0,94,37Z"/><path class="cls-1" d="M105.61,34.13a.85.85,0,0,1-.21.62.81.81,0,0,1-.62.22h-3.63v-.59H103a.28.28,0,0,0,.32-.31,2.52,2.52,0,0,0-.2-1.15.62.62,0,0,0-.55-.36.64.64,0,0,0-.45.18,1.18,1.18,0,0,0-.31.53,2.88,2.88,0,0,0-.12.9,2.38,2.38,0,0,0,.51,1.68,1.81,1.81,0,0,0,1.38.54,2.37,2.37,0,0,0,.78-.12,1.53,1.53,0,0,0,.63-.45,2,2,0,0,1,.24-.2.27.27,0,0,1,.16,0,.16.16,0,0,1,.17.11.76.76,0,0,1,0,.27,1.65,1.65,0,0,1-.36,1,2.55,2.55,0,0,1-1,.75,3.52,3.52,0,0,1-1.46.28,3.59,3.59,0,0,1-1.63-.36,2.84,2.84,0,0,1-1.13-1A2.89,2.89,0,0,1,99.6,35a3.76,3.76,0,0,1,.38-1.72,2.82,2.82,0,0,1,1.12-1.15,3.62,3.62,0,0,1,1.77-.41,3.28,3.28,0,0,1,1.51.31,2,2,0,0,1,.92.84A2.33,2.33,0,0,1,105.61,34.13Z"/><path class="cls-1" d="M109.05,32.47a.86.86,0,0,0-.57.17.58.58,0,0,0-.18.42.6.6,0,0,0,.06.27.47.47,0,0,0,.25.23,2.43,2.43,0,0,0,.6.2,5.16,5.16,0,0,1,1.63.5,1.66,1.66,0,0,1,.77.73,2.08,2.08,0,0,1,.21.95,1.87,1.87,0,0,1-.65,1.51,3,3,0,0,1-1.94.55,2.81,2.81,0,0,1-.72-.07l-.43-.14a.75.75,0,0,0-.29-.08.36.36,0,0,0-.24.08l-.19.14a.35.35,0,0,1-.23.07.25.25,0,0,1-.21-.08.81.81,0,0,1-.13-.28l-.33-1.15a.89.89,0,0,1,0-.46.3.3,0,0,1,.21-.24.37.37,0,0,1,.31,0,.66.66,0,0,1,.25.25,3.3,3.3,0,0,0,.58.71,2.24,2.24,0,0,0,.63.42,1.8,1.8,0,0,0,.69.13,1.07,1.07,0,0,0,.65-.17.55.55,0,0,0,.22-.45.63.63,0,0,0-.09-.31.8.8,0,0,0-.36-.24,4.38,4.38,0,0,0-.78-.22,4.43,4.43,0,0,1-1.35-.45,1.91,1.91,0,0,1-.72-.72,2.25,2.25,0,0,1-.21-1,1.73,1.73,0,0,1,.31-1,2,2,0,0,1,.86-.69,2.94,2.94,0,0,1,1.25-.25,2.84,2.84,0,0,1,.73.08A3.47,3.47,0,0,1,110,32a.8.8,0,0,0,.33.08.45.45,0,0,0,.26-.08l.21-.15a.4.4,0,0,1,.24-.07.25.25,0,0,1,.2.09.49.49,0,0,1,.12.3l.21,1.1a.93.93,0,0,1,0,.43.3.3,0,0,1-.2.21.34.34,0,0,1-.31,0,.89.89,0,0,1-.26-.28,2.66,2.66,0,0,0-.88-.89A1.91,1.91,0,0,0,109.05,32.47Z"/><path class="cls-1" d="M115.5,32.28v4.36a.92.92,0,0,0,0,.33.32.32,0,0,0,.14.14l.15.06a.35.35,0,0,1,.19.14.32.32,0,0,1,.06.2.3.3,0,0,1-.1.24.47.47,0,0,1-.32.09H113a.49.49,0,0,1-.32-.09.33.33,0,0,1-.1-.24.32.32,0,0,1,.06-.2.35.35,0,0,1,.19-.14l.16-.06a.25.25,0,0,0,.13-.14.92.92,0,0,0,0-.33V33.56a.64.64,0,0,0,0-.27.29.29,0,0,0-.16-.1l-.18,0a.27.27,0,0,1-.17-.11.28.28,0,0,1-.06-.18.33.33,0,0,1,.08-.22.64.64,0,0,1,.27-.15l1.3-.51a4.38,4.38,0,0,1,.47-.16,1.32,1.32,0,0,1,.31-.05.53.53,0,0,1,.39.14A.52.52,0,0,1,115.5,32.28Zm-1.3-1.15a1.5,1.5,0,0,1-1-.3,1,1,0,0,1-.37-.83,1,1,0,0,1,.37-.81,1.5,1.5,0,0,1,1-.3,1.55,1.55,0,0,1,1,.3,1,1,0,0,1,.36.81,1,1,0,0,1-.36.83A1.55,1.55,0,0,1,114.2,31.13Z"/><path class="cls-1" d="M122.48,37.33a1.77,1.77,0,0,1,.85.55,1.48,1.48,0,0,1,.26.88,1.75,1.75,0,0,1-1,1.51,5.86,5.86,0,0,1-2.91.59,8.16,8.16,0,0,1-1.86-.17,2,2,0,0,1-.94-.45.94.94,0,0,1-.28-.68,1,1,0,0,1,.43-.78,3.41,3.41,0,0,1,1.58-.46l.06.19a.47.47,0,0,0-.24.2.68.68,0,0,0-.08.31,1,1,0,0,0,.38.8,2.34,2.34,0,0,0,1.36.29A4,4,0,0,0,121,40a.86.86,0,0,0,.45-.22.57.57,0,0,0,.13-.36.4.4,0,0,0-.18-.33,1.87,1.87,0,0,0-.59-.22c-.29-.06-.68-.13-1.17-.19a9.32,9.32,0,0,1-1.41-.27,1.42,1.42,0,0,1-.67-.39.87.87,0,0,1-.19-.57,1,1,0,0,1,.19-.59,1.33,1.33,0,0,1,.62-.45,3.6,3.6,0,0,1,1.2-.21l.07.12a.5.5,0,0,0-.18.1.21.21,0,0,0,0,.13s0,.08.09.12a1.29,1.29,0,0,0,.45.14c.24,0,.64.1,1.19.16A7.54,7.54,0,0,1,122.48,37.33Zm.2-2.06a2.52,2.52,0,0,1-1.12.86,4.6,4.6,0,0,1-1.75.31,4.26,4.26,0,0,1-1.64-.29,2.41,2.41,0,0,1-1-.8,1.9,1.9,0,0,1-.35-1.11,2.16,2.16,0,0,1,.39-1.28,2.55,2.55,0,0,1,1.13-.86,4.59,4.59,0,0,1,1.74-.3,4.06,4.06,0,0,1,1.65.29,2.23,2.23,0,0,1,1,.79,1.84,1.84,0,0,1,.35,1.12A2.13,2.13,0,0,1,122.68,35.27Zm-3.38-2.58a1.15,1.15,0,0,0-.14.58,4.07,4.07,0,0,0,.08.92,4.79,4.79,0,0,0,.23.91,1.21,1.21,0,0,0,.32.51.52.52,0,0,0,.42.13.56.56,0,0,0,.45-.48,3.44,3.44,0,0,0,0-1.26,3.37,3.37,0,0,0-.38-1.21.58.58,0,0,0-.6-.33A.43.43,0,0,0,119.3,32.69Zm1.77-.79a2.78,2.78,0,0,1,.82-1.18,1.72,1.72,0,0,1,1.06-.38,1,1,0,0,1,.72.26.93.93,0,0,1,.29.74,1.1,1.1,0,0,1-.22.69.67.67,0,0,1-.56.27.58.58,0,0,1-.37-.11.8.8,0,0,1-.22-.23,1.59,1.59,0,0,0-.2-.24.48.48,0,0,0-.33-.1.45.45,0,0,0-.36.17,2.62,2.62,0,0,0-.34.65l-.5,0Z"/><path class="cls-1" d="M127,32.28v4.36a.82.82,0,0,0,0,.32.34.34,0,0,0,.14.15l.15.06a.34.34,0,0,1,.19.31q0,.36-.42.36h-2.6a.49.49,0,0,1-.32-.09.33.33,0,0,1-.1-.24.32.32,0,0,1,.06-.2.35.35,0,0,1,.19-.14l.16-.06a.25.25,0,0,0,.13-.14.92.92,0,0,0,0-.33V33.56a.5.5,0,0,0,0-.27.24.24,0,0,0-.15-.1l-.18,0a.27.27,0,0,1-.17-.11.28.28,0,0,1-.06-.18.33.33,0,0,1,.08-.22.64.64,0,0,1,.27-.15l1.3-.51c.19-.07.34-.13.46-.16a1.4,1.4,0,0,1,.34-.05.48.48,0,0,1,.37.14A.52.52,0,0,1,127,32.28Zm-.2,1.46-.34-.36.2-.19A6.55,6.55,0,0,1,128,32.08a2.53,2.53,0,0,1,1.13-.32,1.7,1.7,0,0,1,1.29.53,2,2,0,0,1,.48,1.4v3a1.08,1.08,0,0,0,0,.32.29.29,0,0,0,.14.15l.16.06a.33.33,0,0,1,.18.14.32.32,0,0,1,.06.2.32.32,0,0,1-.09.24.49.49,0,0,1-.32.09h-2.6q-.42,0-.42-.36a.34.34,0,0,1,.19-.31l.15-.06a.4.4,0,0,0,.14-.15,1.17,1.17,0,0,0,0-.32V34a.91.91,0,0,0-.19-.64.71.71,0,0,0-.55-.21,1.29,1.29,0,0,0-.45.09,1.35,1.35,0,0,0-.45.28Z"/><path class="cls-1" d="M30.64,34.41c-1.42,5.28-7.93,4.85-7.93-.14V22.8l-.27.66v0C20.51,28.21,14,37,10.18,37.88,3.63,39.53-.74,34.46.1,28.4c.51-3.8,4-5.85,8-7.61,3.1-1.26,6.6-2.34,9.56-3.85A19.87,19.87,0,0,0,20,15.56,12,12,0,0,0,21.9,14h0a8.61,8.61,0,0,0,1.84-2.76,7.27,7.27,0,0,0,.41-2.39,6.87,6.87,0,0,0-6.8-6.93,6.57,6.57,0,0,0-1.73.23h0a4.69,4.69,0,0,0-.6.2h0l-.17.07h0A7.47,7.47,0,0,0,12.65,3.8l0,0A14.11,14.11,0,0,0,9.3,8.88a19.7,19.7,0,0,0-1,2.93L2.29,5A16.26,16.26,0,0,1,14,0a15.93,15.93,0,0,1,5.39.84c.31.11.6.23.89.35s.56.27.83.42a.05.05,0,0,1,0,0,8.17,8.17,0,0,1,3.67,5.09,8.29,8.29,0,0,1,0,4,8.62,8.62,0,0,1-.69,1.88h0A12.43,12.43,0,0,1,23,14.26h0c-.34.43-.71.86-1.12,1.29C15.72,22,3.31,27.65,6.32,34.07,9.63,41.3,18.85,30.44,22.71,20.2v-.1H21v-.52h1.69c.95-.57,2-2.23,2.49-4.85h.27v4.85h4.82v.52H25.47V34.27c0,3.85,3.75,3.75,4.78-.05Z"/></g></g></svg>