<svg xmlns="http://www.w3.org/2000/svg" viewBox="0 0 54.72 17"><defs><style>.cls-1{fill:#a09cc5;}</style></defs><g id="Layer_2" data-name="Layer 2"><g id="Layer_1-2" data-name="Layer 1"><path class="cls-1" d="M18.52,8l-.1-1.34a.41.41,0,0,0-.05-.21.29.29,0,0,0-.16-.1l-.08,0A.2.2,0,0,1,18,6.28a.15.15,0,0,1,0-.11A.17.17,0,0,1,18,6.05a.18.18,0,0,1,.13,0h.93a.2.2,0,0,1,.14,0,.17.17,0,0,1,.05.12.21.21,0,0,1,0,.11.32.32,0,0,1-.13.06l-.08,0a.27.27,0,0,0-.19.12.38.38,0,0,0,0,.22l.1,1.3c0,.09,0,.18,0,.26a2.44,2.44,0,0,1,0,.27,1.15,1.15,0,0,1-.15.59,1.06,1.06,0,0,1-.47.41,1.89,1.89,0,0,1-.81.15,2.08,2.08,0,0,1-.84-.14,1,1,0,0,1-.49-.4,1,1,0,0,1-.17-.6.62.62,0,0,1,0-.13V8.23c0-.07,0-.17,0-.29l.09-1.4a.16.16,0,0,0,0-.11A.17.17,0,0,0,16,6.37l-.1,0c-.12,0-.17-.08-.17-.17a.13.13,0,0,1,.05-.12.17.17,0,0,1,.13,0h1.53a.2.2,0,0,1,.14,0,.17.17,0,0,1,0,.12.15.15,0,0,1,0,.11.23.23,0,0,1-.13.06l-.11,0a.19.19,0,0,0-.09,0,.21.21,0,0,0,0,.11L17.08,8c0,.11,0,.21,0,.3v.23a.89.89,0,0,0,.18.64.63.63,0,0,0,.49.19.94.94,0,0,0,.43-.09A.7.7,0,0,0,18.44,9a.82.82,0,0,0,.1-.42c0-.12,0-.22,0-.29S18.52,8.09,18.52,8Z"/><path class="cls-1" d="M21,9.07a.17.17,0,0,0,0,.1l.1.06.11,0a.16.16,0,0,1,.12.17.12.12,0,0,1-.05.11.21.21,0,0,1-.15,0H19.76a.24.24,0,0,1-.15,0,.14.14,0,0,1,0-.11.16.16,0,0,1,.12-.17l.11,0,.09-.06a.13.13,0,0,0,0-.1V6.53a.13.13,0,0,0,0-.1l-.09-.06-.11,0a.16.16,0,0,1-.12-.17.12.12,0,0,1,0-.11.24.24,0,0,1,.15,0h1.39a.21.21,0,0,1,.15,0s.05.06.05.11a.16.16,0,0,1-.12.17l-.11,0-.1.06a.17.17,0,0,0,0,.1Z"/><path class="cls-1" d="M23,8.11l-.13.31-.15.38-.15.4-.15.4-.14.36-.13.3a.2.2,0,0,1-.15.12.33.33,0,0,1-.23,0,.33.33,0,0,1-.17-.16.23.23,0,0,1,0-.2l.14-.28c.05-.11.11-.22.18-.35l.2-.37.2-.38.19-.36q.08-.16.15-.3l.13-.31c0-.12.09-.24.14-.38s.1-.26.16-.4l.15-.4.14-.36c.05-.11.09-.21.12-.29a.23.23,0,0,1,.15-.13.32.32,0,0,1,.23,0,.41.41,0,0,1,.18.16.21.21,0,0,1,0,.2c0,.08-.08.17-.13.28l-.18.35-.21.38-.2.38c-.06.12-.13.24-.18.35S23.07,8,23,8.11Z"/><path class="cls-1" d="M27.13,8,27,6.68A.41.41,0,0,0,27,6.47a.29.29,0,0,0-.16-.1l-.08,0a.2.2,0,0,1-.13-.06.15.15,0,0,1,0-.11.17.17,0,0,1,.05-.12.2.2,0,0,1,.14,0h.92a.2.2,0,0,1,.14,0,.17.17,0,0,1,.05.12.21.21,0,0,1,0,.11.32.32,0,0,1-.13.06l-.08,0a.3.3,0,0,0-.19.12.38.38,0,0,0,0,.22L27.5,8a2.11,2.11,0,0,0,0,.26v.27a1.15,1.15,0,0,1-.15.59,1.06,1.06,0,0,1-.47.41,1.89,1.89,0,0,1-.81.15,2,2,0,0,1-.83-.14,1,1,0,0,1-.5-.4,1.08,1.08,0,0,1-.17-.6.62.62,0,0,1,0-.13V8.23c0-.07,0-.17,0-.29l.09-1.4s0-.09,0-.11a.17.17,0,0,0-.12-.06l-.1,0c-.11,0-.17-.08-.17-.17a.13.13,0,0,1,.05-.12.18.18,0,0,1,.13,0H26a.2.2,0,0,1,.14,0,.17.17,0,0,1,.05.12.15.15,0,0,1,0,.11.23.23,0,0,1-.13.06l-.11,0a.19.19,0,0,0-.09,0,.21.21,0,0,0,0,.11L25.7,8c0,.11,0,.21,0,.3v.23a.94.94,0,0,0,.18.64.63.63,0,0,0,.49.19.94.94,0,0,0,.43-.09A.7.7,0,0,0,27.05,9a.82.82,0,0,0,.1-.42,2.36,2.36,0,0,0,0-.29C27.14,8.16,27.13,8.09,27.13,8Z"/><path class="cls-1" d="M29.47,7.72l.38.13L29,9a.29.29,0,0,0-.08.2.13.13,0,0,0,.09.1l0,0,.09.06a.3.3,0,0,1,0,.1.14.14,0,0,1,0,.11.2.2,0,0,1-.14,0h-.78a.24.24,0,0,1-.15,0,.14.14,0,0,1,0-.11.17.17,0,0,1,0-.1.38.38,0,0,1,.11-.08.78.78,0,0,0,.18-.11A1.06,1.06,0,0,0,28.49,9l.14-.18ZM31.24,9l.1.13a.27.27,0,0,0,.08.07l.11,0a.18.18,0,0,1,.1.07.15.15,0,0,1,0,.1.14.14,0,0,1-.05.11.21.21,0,0,1-.15,0H30a.21.21,0,0,1-.15,0,.14.14,0,0,1,0-.11.18.18,0,0,1,0-.11.27.27,0,0,1,.12-.07s.07,0,.08-.07a.11.11,0,0,0,0-.1A.49.49,0,0,0,30,9L28.39,6.54l-.07-.09a.23.23,0,0,0-.07-.07l-.09,0a.2.2,0,0,1-.1-.07.15.15,0,0,1,0-.1.13.13,0,0,1,0-.11.21.21,0,0,1,.15,0h1.44a.21.21,0,0,1,.15,0,.21.21,0,0,1,0,.11.31.31,0,0,1,0,.11.16.16,0,0,1-.08.05l-.08,0c-.05,0-.07,0-.08.06a.33.33,0,0,0,.06.15ZM30.15,7.84l-.37-.11.78-1.07a.32.32,0,0,0,.08-.19.14.14,0,0,0-.1-.11l-.07,0a.24.24,0,0,1-.08-.06.2.2,0,0,1,0-.11.12.12,0,0,1,0-.11.2.2,0,0,1,.14,0h.78c.13,0,.19,0,.19.15a.13.13,0,0,1,0,.1.48.48,0,0,1-.13.09.55.55,0,0,0-.17.14c-.06.06-.13.16-.23.28Z"/><path class="cls-1" d="M34,8a.7.7,0,0,0-.11.23,1.24,1.24,0,0,0,0,.27,1,1,0,0,0,.06.36.55.55,0,0,0,.18.24.42.42,0,0,0,.27.09.62.62,0,0,0,.31-.07A.72.72,0,0,0,35,8.9l.2.16a1.43,1.43,0,0,1-.47.45,1.21,1.21,0,0,1-.65.16,1.46,1.46,0,0,1-.62-.12A1,1,0,0,1,33,9.24a.82.82,0,0,1,0-.9A1.13,1.13,0,0,1,33.46,8a1.75,1.75,0,0,1,.69-.16l0,.1A.22.22,0,0,0,34,8Zm.33-1.67a.86.86,0,0,0-.08.38,1,1,0,0,0,.1.47.5.5,0,0,0,.3.29,1.33,1.33,0,0,1,.24.1,1.37,1.37,0,0,1,.21.15,1.65,1.65,0,0,1,.22.23l.94,1.19.11.09.11,0a.21.21,0,0,1,.12,0,.12.12,0,0,1,0,.11.13.13,0,0,1,0,.12.2.2,0,0,1-.14,0h-.9a.58.58,0,0,1-.19,0,.79.79,0,0,1-.15-.12l-1-1.17A2,2,0,0,0,34,8a.4.4,0,0,0-.15-.11,1,1,0,0,1-.44-.34A.89.89,0,0,1,33.29,7a.93.93,0,0,1,.16-.54,1.12,1.12,0,0,1,.46-.39,2,2,0,0,1,.77-.14,1.74,1.74,0,0,1,.63.1,1,1,0,0,1,.42.29.69.69,0,0,1,.15.44.59.59,0,0,1-.13.39.86.86,0,0,1-.4.3,3.4,3.4,0,0,1-.76.18V7.51a.36.36,0,0,0,.24-.25,1.41,1.41,0,0,0,.07-.49.83.83,0,0,0-.08-.42.24.24,0,0,0-.22-.16A.22.22,0,0,0,34.37,6.34Zm1.38,2a.5.5,0,0,0,.1-.19.29.29,0,0,0,0-.16.22.22,0,0,0-.11-.1l-.08,0-.08-.06a.19.19,0,0,1,0-.08.16.16,0,0,1,0-.11.21.21,0,0,1,.13-.05h.69c.13,0,.2.05.2.16a.17.17,0,0,1,0,.1.3.3,0,0,1-.1.09.73.73,0,0,0-.18.14,2.91,2.91,0,0,0-.24.28l-.31.42-.16-.19Z"/><path class="cls-1" d="M19,15.65a.21.21,0,0,1,0,.15.17.17,0,0,1-.13,0,.28.28,0,0,1-.15,0l-.12-.1-.11-.1a.18.18,0,0,0-.11,0,.27.27,0,0,0-.13,0l-.17.1a1.18,1.18,0,0,1-.25.1,1.25,1.25,0,0,1-.35,0,1.92,1.92,0,0,1-.74-.13,1.55,1.55,0,0,1-.55-.38,1.77,1.77,0,0,1-.34-.6,2.35,2.35,0,0,1-.12-.77,2,2,0,0,1,.52-1.36,1.67,1.67,0,0,1,.58-.4,1.89,1.89,0,0,1,.72-.14,1.53,1.53,0,0,1,.41,0l.26.09a.34.34,0,0,0,.16,0,.14.14,0,0,0,.11,0l.09-.08a.21.21,0,0,1,.12,0,.13.13,0,0,1,.1,0,.4.4,0,0,1,.06.13l.26.91a.15.15,0,0,1,0,.13.14.14,0,0,1-.11.07.22.22,0,0,1-.14,0,.17.17,0,0,1-.09-.11,1.72,1.72,0,0,0-.3-.49,1.12,1.12,0,0,0-.36-.25,1.34,1.34,0,0,0-.39-.07.77.77,0,0,0-.49.17,1,1,0,0,0-.31.46,2,2,0,0,0-.11.72,2.51,2.51,0,0,0,.13.88,1.15,1.15,0,0,0,.35.53.85.85,0,0,0,.52.17.27.27,0,0,0,.13,0l.1-.05a.41.41,0,0,0,.05-.09.23.23,0,0,0,0-.12v-.59a.15.15,0,0,0,0-.08.23.23,0,0,0-.11-.05l-.12,0a.23.23,0,0,1-.12-.06.15.15,0,0,1,0-.1.16.16,0,0,1,.05-.11.27.27,0,0,1,.15,0H19.1a.27.27,0,0,1,.15,0,.16.16,0,0,1,.05.11.12.12,0,0,1,0,.09.26.26,0,0,1-.1.07l-.07,0-.08.05a.17.17,0,0,0,0,.1Z"/><path class="cls-1" d="M20.73,13.43l.06.55v1.26a.17.17,0,0,0,0,.12s.05.05.11.06l.2,0,.1.05a.17.17,0,0,1,0,.1.14.14,0,0,1,0,.11.26.26,0,0,1-.14,0H19.75a.23.23,0,0,1-.13,0,.13.13,0,0,1,0-.1.13.13,0,0,1,0-.09l.08-.06.07,0a.1.1,0,0,0,.05-.06.39.39,0,0,0,0-.13V14a.27.27,0,0,0,0-.11l-.06,0-.08,0s-.06,0-.07,0a.13.13,0,0,1,0-.08.1.1,0,0,1,0-.09l.11-.07.53-.2.23-.08.11,0a.12.12,0,0,1,.1,0A.37.37,0,0,1,20.73,13.43Zm0,.93a1.69,1.69,0,0,1,.1-.64.73.73,0,0,1,.27-.38.61.61,0,0,1,.36-.13.54.54,0,0,1,.4.16.71.71,0,0,1,.13.47.69.69,0,0,1-.12.45.37.37,0,0,1-.31.15.39.39,0,0,1-.3-.1.39.39,0,0,1-.1-.29V14a.16.16,0,0,0,0-.11.1.1,0,0,0-.09,0,.16.16,0,0,0-.11,0,.54.54,0,0,0-.08.17,1.26,1.26,0,0,0,0,.3Z"/><path class="cls-1" d="M22.18,15.2a.6.6,0,0,1,.31-.54,1.47,1.47,0,0,1,.85-.2,1,1,0,0,1,.26,0,.47.47,0,0,1,.19.06l-.07.21a.31.31,0,0,0-.12-.05l-.13,0a.28.28,0,0,0-.22.09.36.36,0,0,0-.09.26.38.38,0,0,0,.08.26.26.26,0,0,0,.21.09.29.29,0,0,0,.16,0,.34.34,0,0,0,.13-.1l.06.18a.8.8,0,0,1-.36.29,1.13,1.13,0,0,1-.49.1.85.85,0,0,1-.56-.17A.55.55,0,0,1,22.18,15.2Zm1.53.2v-.06h-.08V13.71a.24.24,0,0,0-.06-.18.19.19,0,0,0-.16-.07.24.24,0,0,0-.15,0,.1.1,0,0,0-.05.1v.27a.4.4,0,0,1-.14.31.59.59,0,0,1-.38.11.41.41,0,0,1-.31-.1.3.3,0,0,1-.1-.25.53.53,0,0,1,.14-.33,1,1,0,0,1,.44-.28,2.1,2.1,0,0,1,.72-.11,1.24,1.24,0,0,1,.77.2.66.66,0,0,1,.25.53v1.26a.19.19,0,0,0,0,.08.08.08,0,0,0,.08,0,.09.09,0,0,0,.07,0l.05-.05,0,0h0a.06.06,0,0,1,.06,0,.14.14,0,0,1,0,.07.4.4,0,0,1-.08.22.54.54,0,0,1-.22.2.9.9,0,0,1-.8,0A.35.35,0,0,1,23.71,15.4Z"/><path class="cls-1" d="M26.31,13.43v.24l0,.09v2.68a.46.46,0,0,0,0,.14.1.1,0,0,0,.06.05l.07,0a.12.12,0,0,1,.08.06.11.11,0,0,1,0,.08.12.12,0,0,1,0,.1s-.07,0-.13,0H25.31a.17.17,0,0,1-.13,0,.12.12,0,0,1,0-.1.19.19,0,0,1,0-.08.16.16,0,0,1,.08-.06l.07,0a.12.12,0,0,0,.05-.05.28.28,0,0,0,0-.14V14a.31.31,0,0,0,0-.11s0,0-.06,0l-.08,0s-.06,0-.07,0a.11.11,0,0,1,0-.08.12.12,0,0,1,0-.09l.11-.06.5-.21a.64.64,0,0,1,.19-.07l.13,0a.2.2,0,0,1,.16.06A.2.2,0,0,1,26.31,13.43Zm-.13.69L26,14a2,2,0,0,1,.47-.54,1,1,0,0,1,1.14,0,1.11,1.11,0,0,1,.37.43,1.42,1.42,0,0,1,.13.63,1.54,1.54,0,0,1-.16.73,1.16,1.16,0,0,1-.45.48,1.19,1.19,0,0,1-.65.17,1,1,0,0,1-.52-.13,1.15,1.15,0,0,1-.39-.4l.24-.18a1,1,0,0,0,.23.26.47.47,0,0,0,.26.08.35.35,0,0,0,.23-.09.61.61,0,0,0,.15-.29,1.9,1.9,0,0,0,.06-.52,1.56,1.56,0,0,0-.06-.48.56.56,0,0,0-.15-.27.33.33,0,0,0-.23-.09.39.39,0,0,0-.27.1A.84.84,0,0,0,26.18,14.12Z"/><path class="cls-1" d="M29.64,12.1v3.14a.41.41,0,0,0,0,.14.09.09,0,0,0,.06.06l.06,0a.14.14,0,0,1,.08.13c0,.09-.06.14-.18.14H28.6a.23.23,0,0,1-.13,0,.13.13,0,0,1,0-.1.24.24,0,0,1,0-.09.28.28,0,0,1,.08-.06l.07,0a.1.1,0,0,0,0-.06.26.26,0,0,0,0-.14V12.63a.31.31,0,0,0,0-.11.09.09,0,0,0-.06,0l-.08,0s-.06,0-.07,0a.11.11,0,0,1,0-.08.12.12,0,0,1,0-.09.27.27,0,0,1,.11-.06L29.1,12l.19-.07.14,0a.21.21,0,0,1,.16.06A.2.2,0,0,1,29.64,12.1ZM29.56,14l-.14-.15.08-.08a2.83,2.83,0,0,1,.6-.46,1,1,0,0,1,.47-.14.67.67,0,0,1,.53.23.79.79,0,0,1,.2.58v1.22a.41.41,0,0,0,0,.14.09.09,0,0,0,.06.06l.06,0a.18.18,0,0,1,.08.06.13.13,0,0,1,0,.09.13.13,0,0,1,0,.1.21.21,0,0,1-.13,0H30.29c-.12,0-.17-.05-.17-.14a.13.13,0,0,1,.08-.13l.06,0s0,0,0-.06a.26.26,0,0,0,0-.14V14.16a.41.41,0,0,0-.08-.27A.29.29,0,0,0,30,13.8a.72.72,0,0,0-.19,0,.71.71,0,0,0-.18.12Z"/><path class="cls-1" d="M33,13.43v1.81a.41.41,0,0,0,0,.14.09.09,0,0,0,.06.06l.06,0a.28.28,0,0,1,.08.06.13.13,0,0,1,0,.09.13.13,0,0,1,0,.1.23.23,0,0,1-.13,0H32a.23.23,0,0,1-.13,0,.13.13,0,0,1,0-.1.24.24,0,0,1,0-.09l.08-.06.07,0a.1.1,0,0,0,.05-.06.41.41,0,0,0,0-.14V14a.31.31,0,0,0,0-.11.09.09,0,0,0-.06,0l-.08,0s-.06,0-.07,0a.11.11,0,0,1,0-.08.12.12,0,0,1,0-.09.27.27,0,0,1,.11-.06l.54-.21a.8.8,0,0,1,.2-.07l.12,0a.22.22,0,0,1,.17.06A.25.25,0,0,1,33,13.43ZM32.48,13a.65.65,0,0,1-.41-.12.44.44,0,0,1-.15-.35.4.4,0,0,1,.15-.33.59.59,0,0,1,.41-.13.62.62,0,0,1,.42.13.4.4,0,0,1,.15.33.44.44,0,0,1-.15.35A.68.68,0,0,1,32.48,13Z"/><path class="cls-1" d="M36,14a.39.39,0,0,1-.13.31.48.48,0,0,1-.36.13.41.41,0,0,1-.32-.12A.44.44,0,0,1,35,14v-.09a.4.4,0,0,0-.08-.26.23.23,0,0,0-.2-.1.28.28,0,0,0-.19.07.61.61,0,0,0-.15.22,1.35,1.35,0,0,0-.05.38,1.13,1.13,0,0,0,.1.51.71.71,0,0,0,.68.41,1,1,0,0,0,.31-.05.87.87,0,0,0,.26-.18.31.31,0,0,1,.1-.08.09.09,0,0,1,.06,0,.07.07,0,0,1,.07,0A.2.2,0,0,1,36,15a.7.7,0,0,1-.15.43,1,1,0,0,1-.4.31,1.55,1.55,0,0,1-.59.11,1.48,1.48,0,0,1-.68-.15,1.15,1.15,0,0,1-.47-.43,1.17,1.17,0,0,1-.17-.65,1.37,1.37,0,0,1,.17-.7,1.23,1.23,0,0,1,.47-.49,1.44,1.44,0,0,1,.73-.18,1.5,1.5,0,0,1,.58.11.89.89,0,0,1,.37.28A.58.58,0,0,1,36,14Z"/><path class="cls-1" d="M37.39,15.59a.16.16,0,0,1,.12-.17l.11,0,.1-.06a.17.17,0,0,0,0-.1V12.68a.17.17,0,0,0,0-.1l-.1-.06-.11,0a.16.16,0,0,1-.12-.17c0-.05,0-.09,0-.11a.21.21,0,0,1,.15,0h1.5a2.25,2.25,0,0,1,.84.14,1.85,1.85,0,0,1,.65.39,1.67,1.67,0,0,1,.42.61,2,2,0,0,1,.15.78,1.64,1.64,0,0,1-.22.86,1.56,1.56,0,0,1-.63.59,2.13,2.13,0,0,1-1,.21H37.59a.21.21,0,0,1-.15,0A.12.12,0,0,1,37.39,15.59Zm1.81-.18a.77.77,0,0,0,.44-.14.93.93,0,0,0,.3-.44,2.26,2.26,0,0,0,.11-.76A2.76,2.76,0,0,0,40,13.4a1.38,1.38,0,0,0-.22-.49.91.91,0,0,0-.34-.31.94.94,0,0,0-.45-.11h-.15v2.65a.27.27,0,0,0,.07.21.31.31,0,0,0,.21.06Z"/><path class="cls-1" d="M43.94,14.2a.4.4,0,0,1-.08.26.36.36,0,0,1-.26.09H42.09V14.3h.76c.09,0,.13,0,.13-.12a1.12,1.12,0,0,0-.08-.48.27.27,0,0,0-.23-.15.28.28,0,0,0-.19.07.58.58,0,0,0-.13.22,1.35,1.35,0,0,0-.05.38,1,1,0,0,0,.22.7.74.74,0,0,0,.57.22,1.14,1.14,0,0,0,.33-.05.75.75,0,0,0,.26-.19.31.31,0,0,1,.1-.08l.06,0s.06,0,.07,0a.2.2,0,0,1,0,.11.68.68,0,0,1-.15.42,1,1,0,0,1-.41.32,1.62,1.62,0,0,1-.61.11,1.47,1.47,0,0,1-.67-.15,1.15,1.15,0,0,1-.47-.43,1.18,1.18,0,0,1-.18-.65,1.53,1.53,0,0,1,.16-.72,1.12,1.12,0,0,1,.47-.47,1.39,1.39,0,0,1,.73-.18,1.47,1.47,0,0,1,.63.13.93.93,0,0,1,.38.35A1,1,0,0,1,43.94,14.2Z"/><path class="cls-1" d="M45.37,13.51a.37.37,0,0,0-.23.07.25.25,0,0,0-.08.18.23.23,0,0,0,0,.11.24.24,0,0,0,.1.1l.25.08a2.42,2.42,0,0,1,.68.2.74.74,0,0,1,.32.31.83.83,0,0,1,.09.39.75.75,0,0,1-.28.63,1.18,1.18,0,0,1-.8.23,1.15,1.15,0,0,1-.3,0L45,15.72l-.12,0a.17.17,0,0,0-.1,0l-.08.06a.14.14,0,0,1-.09,0,.12.12,0,0,1-.09,0,.33.33,0,0,1-.06-.12l-.13-.48a.35.35,0,0,1,0-.19.15.15,0,0,1,.09-.1.15.15,0,0,1,.13,0,.33.33,0,0,1,.11.1,1.22,1.22,0,0,0,.24.3,1.06,1.06,0,0,0,.26.17.72.72,0,0,0,.29.06.48.48,0,0,0,.27-.07.23.23,0,0,0,.09-.19.25.25,0,0,0,0-.13.36.36,0,0,0-.15-.1,1.9,1.9,0,0,0-.32-.09,2,2,0,0,1-.57-.19.76.76,0,0,1-.29-.3.91.91,0,0,1-.09-.41.74.74,0,0,1,.13-.44.82.82,0,0,1,.35-.28,1.27,1.27,0,0,1,.52-.11,1.23,1.23,0,0,1,.31,0l.18.06a.31.31,0,0,0,.13,0,.18.18,0,0,0,.11,0l.09-.06a.17.17,0,0,1,.1,0,.11.11,0,0,1,.08,0,.22.22,0,0,1,.05.13l.09.46a.38.38,0,0,1,0,.18.13.13,0,0,1-.09.09.13.13,0,0,1-.12,0,.32.32,0,0,1-.11-.12,1.08,1.08,0,0,0-.37-.37A.79.79,0,0,0,45.37,13.51Z"/><path class="cls-1" d="M48.06,13.43v1.81a.26.26,0,0,0,0,.14.1.1,0,0,0,.05.06l.07,0,.08.06a.24.24,0,0,1,0,.09.13.13,0,0,1,0,.1.23.23,0,0,1-.13,0H47a.21.21,0,0,1-.13,0,.14.14,0,0,1,0-.19.22.22,0,0,1,.07-.06l.07,0a.09.09,0,0,0,.06-.06.41.41,0,0,0,0-.14V14a.31.31,0,0,0,0-.11l-.07,0-.07,0a.15.15,0,0,1-.08,0,.19.19,0,0,1,0-.08.12.12,0,0,1,0-.09l.11-.06.55-.21a.76.76,0,0,1,.19-.07l.13,0a.2.2,0,0,1,.16.06A.2.2,0,0,1,48.06,13.43ZM47.52,13a.68.68,0,0,1-.42-.12.44.44,0,0,1-.15-.35.4.4,0,0,1,.15-.33.62.62,0,0,1,.42-.13.59.59,0,0,1,.41.13.4.4,0,0,1,.15.33.44.44,0,0,1-.15.35A.65.65,0,0,1,47.52,13Z"/><path class="cls-1" d="M51,15.53a.9.9,0,0,1,.36.23.62.62,0,0,1,.1.37.7.7,0,0,1-.41.62A2.35,2.35,0,0,1,49.8,17a3.15,3.15,0,0,1-.77-.07.79.79,0,0,1-.4-.19.41.41,0,0,1-.11-.28.4.4,0,0,1,.18-.32,1.46,1.46,0,0,1,.66-.2l0,.08a.22.22,0,0,0-.1.09.28.28,0,0,0,0,.13.43.43,0,0,0,.15.33,1,1,0,0,0,.57.12,1.6,1.6,0,0,0,.36,0,.37.37,0,0,0,.19-.09.25.25,0,0,0,0-.15.16.16,0,0,0-.07-.14,1,1,0,0,0-.25-.09c-.12,0-.28-.05-.48-.08a3.7,3.7,0,0,1-.59-.11.71.71,0,0,1-.28-.16.41.41,0,0,1-.08-.24.46.46,0,0,1,.08-.25.52.52,0,0,1,.26-.18,1.54,1.54,0,0,1,.5-.09l0,.05s-.06,0-.07,0,0,0,0,.05,0,0,0,.06l.19.05.49.07A3.52,3.52,0,0,1,51,15.53Zm.09-.85a1.06,1.06,0,0,1-.47.35,1.8,1.8,0,0,1-.73.13,1.76,1.76,0,0,1-.68-.12,1,1,0,0,1-.43-.33.78.78,0,0,1-.15-.47.9.9,0,0,1,.17-.53,1,1,0,0,1,.47-.35,1.75,1.75,0,0,1,.72-.13,1.78,1.78,0,0,1,.69.12.94.94,0,0,1,.42.33.78.78,0,0,1,.15.47A1,1,0,0,1,51.05,14.68ZM49.64,13.6a.43.43,0,0,0-.06.24,1.8,1.8,0,0,0,0,.38,2,2,0,0,0,.1.38.64.64,0,0,0,.13.22.24.24,0,0,0,.18,0,.21.21,0,0,0,.18-.2,1.31,1.31,0,0,0,0-.52,1.46,1.46,0,0,0-.16-.51.25.25,0,0,0-.25-.14A.21.21,0,0,0,49.64,13.6Zm.73-.33a1.17,1.17,0,0,1,.35-.49.72.72,0,0,1,.44-.16.44.44,0,0,1,.3.11.39.39,0,0,1,.12.31.46.46,0,0,1-.09.29.3.3,0,0,1-.24.11.33.33,0,0,1-.15,0,.41.41,0,0,1-.09-.1l-.09-.1a.17.17,0,0,0-.13,0,.18.18,0,0,0-.15.07,1.07,1.07,0,0,0-.14.27l-.21,0Z"/><path class="cls-1" d="M52.82,13.43v1.81a.41.41,0,0,0,0,.14.1.1,0,0,0,0,.06l.07,0a.14.14,0,0,1,.08.13c0,.09-.06.14-.18.14H51.78a.23.23,0,0,1-.13,0,.13.13,0,0,1,0-.1.24.24,0,0,1,0-.09l.08-.06.07,0a.1.1,0,0,0,0-.06.41.41,0,0,0,0-.14V14a.31.31,0,0,0,0-.11s0,0-.06,0l-.08,0s-.06,0-.07,0a.11.11,0,0,1,0-.08.12.12,0,0,1,0-.09.27.27,0,0,1,.11-.06l.54-.21.19-.07.14,0a.21.21,0,0,1,.16.06A.25.25,0,0,1,52.82,13.43Zm-.08.61-.14-.15.08-.08a2.83,2.83,0,0,1,.6-.46,1,1,0,0,1,.47-.14.67.67,0,0,1,.53.23.79.79,0,0,1,.2.58v1.22a.41.41,0,0,0,0,.14.09.09,0,0,0,.06.06l.06,0,.08.06a.13.13,0,0,1,0,.09.13.13,0,0,1,0,.1.21.21,0,0,1-.13,0H53.47c-.12,0-.18-.05-.18-.14a.14.14,0,0,1,.08-.13l.07,0a.1.1,0,0,0,.05-.06.41.41,0,0,0,0-.14V14.16a.41.41,0,0,0-.08-.27.3.3,0,0,0-.23-.09.72.72,0,0,0-.19,0,.71.71,0,0,0-.18.12Z"/><path class="cls-1" d="M12.75,14.32c-.59,2.19-3.3,2-3.3-.06V9.49l-.11.27h0c-.81,2-3.5,5.64-5.1,6-2.73.69-4.55-1.42-4.2-3.94.21-1.59,1.64-2.44,3.32-3.17,1.29-.52,2.75-1,4-1.6a8.44,8.44,0,0,0,1-.58,5.12,5.12,0,0,0,.79-.66h0a3.53,3.53,0,0,0,.77-1.14,3,3,0,0,0,.17-1A2.84,2.84,0,0,0,6.5.87h0L6.25,1h0L6.17,1h0a3.34,3.34,0,0,0-.91.6h0A5.86,5.86,0,0,0,3.87,3.7a8.16,8.16,0,0,0-.4,1.21L1,2.07A6.77,6.77,0,0,1,5.81,0,6.71,6.71,0,0,1,8.05.35,2.39,2.39,0,0,1,8.42.5l.35.17h0A3.35,3.35,0,0,1,10.31,2.8a3.28,3.28,0,0,1,.1.84,3.33,3.33,0,0,1-.1.84,3.19,3.19,0,0,1-.29.78h0a5.26,5.26,0,0,1-.46.66h0a5.76,5.76,0,0,1-.47.53c-2.55,2.7-7.71,5-6.46,7.7,1.38,3,5.21-1.5,6.82-5.77v0h-.7V8.15h.7a3,3,0,0,0,1-2h.11v2h2v.21h-2v5.9c0,1.6,1.56,1.56,2,0Z"/></g></g></svg>