<svg xmlns="http://www.w3.org/2000/svg" viewBox="0 0 245.31 106.31"><defs><style>.cls-1{fill:#beb9dc;}.cls-2{fill:#231f20;}</style></defs><g id="Layer_2" data-name="Layer 2"><g id="Layer_1-2" data-name="Layer 1"><path class="cls-1" d="M83.78,92.25c-3.88,14.15-21.68,13-21.68-.38V61.12l-.75,1.78v-.1c-5.28,12.83-23,36.38-33.52,38.74C9.92,106-2,92.38.28,76.15,1.66,66,11.07,60.45,22.09,55.74c8.48-3.38,18-6.29,26.14-10.32a56.89,56.89,0,0,0,6.43-3.71,34.55,34.55,0,0,0,5.22-4.3h0a23.22,23.22,0,0,0,5-7.41A18.59,18.59,0,0,0,47.44,5a18.86,18.86,0,0,0-4.73.6v0c-.56.16-1.1.33-1.64.54h0a4.19,4.19,0,0,0-.49.2h0a20.9,20.9,0,0,0-5.95,3.84l-.09.08a38.42,38.42,0,0,0-9.08,13.56,54.48,54.48,0,0,0-2.64,7.85L6.25,13.35A44.81,44.81,0,0,1,38.16,0,44.57,44.57,0,0,1,52.92,2.26c.83.28,1.63.6,2.41.94s1.55.71,2.29,1.1l.09.06A22.26,22.26,0,0,1,68.42,23.42a22.48,22.48,0,0,1-2.57,10.45s0,0,0,.06a33.78,33.78,0,0,1-3,4.31l0,0c-.93,1.16-2,2.31-3.06,3.45C43,59.09,9.05,74.12,17.27,91.33c9.07,19.38,34.26-9.73,44.83-37.18V53.9H57.47V52.49H62.1c2.59-1.53,5.5-6,6.8-13h.75v13H82.81V53.9H69.65v38c0,10.32,10.25,10.07,13-.13Z"/><path class="cls-2" d="M105,74.83a4.22,4.22,0,0,0,2.17-.51A3.91,3.91,0,0,0,108.51,73a5.22,5.22,0,0,0,.72-1.85,10.56,10.56,0,0,0,.21-2.11V61.51h1.89v7.54a11.58,11.58,0,0,1-.34,2.87,6.85,6.85,0,0,1-1.1,2.38,5.33,5.33,0,0,1-2,1.63,7.46,7.46,0,0,1-5.93,0,5.43,5.43,0,0,1-2-1.67A6.58,6.58,0,0,1,99,71.84a11.77,11.77,0,0,1-.33-2.79V61.51h1.89v7.54a10.21,10.21,0,0,0,.22,2.16,5.53,5.53,0,0,0,.73,1.83,3.85,3.85,0,0,0,1.37,1.29A4.2,4.2,0,0,0,105,74.83Z"/><path class="cls-2" d="M114.69,76.42V61.51h1.89V76.42Z"/><path class="cls-2" d="M131.07,61.51,121,76.42h-2L129,61.51Z"/><path class="cls-2" d="M139.58,74.83a4.16,4.16,0,0,0,2.16-.51A3.94,3.94,0,0,0,143.12,73a5.42,5.42,0,0,0,.72-1.85,10.56,10.56,0,0,0,.21-2.11V61.51h1.89v7.54a11.58,11.58,0,0,1-.34,2.87,6.87,6.87,0,0,1-1.11,2.38,5.3,5.3,0,0,1-2,1.63,6.54,6.54,0,0,1-2.93.6,6.47,6.47,0,0,1-3-.63,5.54,5.54,0,0,1-2-1.67,6.94,6.94,0,0,1-1.07-2.39,12.3,12.3,0,0,1-.32-2.79V61.51h1.89v7.54a10.21,10.21,0,0,0,.22,2.16,5.32,5.32,0,0,0,.73,1.83,3.85,3.85,0,0,0,1.37,1.29A4.17,4.17,0,0,0,139.58,74.83Z"/><path class="cls-2" d="M149.68,61.51l4.54,6.22,4.53-6.22h2.08l-5.61,7.56,5.44,7.35h-2.08l-4.36-6-4.37,6h-2.1l5.44-7.35-5.61-7.56Z"/><path class="cls-2" d="M170.28,76.63a3.85,3.85,0,0,1-1.45-.26,3.48,3.48,0,0,1-1.94-1.8,3.25,3.25,0,0,1-.28-1.36,2.86,2.86,0,0,1,.33-1.37,3.15,3.15,0,0,1,1-1.07,5,5,0,0,1,1.47-.69,6.39,6.39,0,0,1,1.86-.25,8.85,8.85,0,0,1,1.61.15,7.39,7.39,0,0,1,1.45.4v-.89a2.63,2.63,0,0,0-2.9-2.87,6.09,6.09,0,0,0-3.48,1.28l-.61-1.2a7.58,7.58,0,0,1,4.26-1.43,4.67,4.67,0,0,1,3.37,1.16,4.26,4.26,0,0,1,1.21,3.25v4.48c0,.43.2.65.59.67v1.59l-.48.07-.4,0a1.18,1.18,0,0,1-.88-.33,1.34,1.34,0,0,1-.38-.79l-.05-.77a4.73,4.73,0,0,1-1.85,1.5A5.76,5.76,0,0,1,170.28,76.63Zm.48-1.38a4.52,4.52,0,0,0,1.84-.37,2.92,2.92,0,0,0,1.29-1,1.12,1.12,0,0,0,.4-.81V71.47a7.56,7.56,0,0,0-2.79-.53,4,4,0,0,0-2.26.59,1.77,1.77,0,0,0-.87,1.53,2,2,0,0,0,.18.86,2.19,2.19,0,0,0,.5.7,2.46,2.46,0,0,0,.77.46A2.66,2.66,0,0,0,170.76,75.25Z"/><path class="cls-2" d="M188.61,76.42h-1.84V70.29a4.69,4.69,0,0,0-.54-2.56,1.84,1.84,0,0,0-1.63-.8,3.24,3.24,0,0,0-1.13.22,4.51,4.51,0,0,0-1.07.6,4,4,0,0,0-.88.9,3.59,3.59,0,0,0-.57,1.16v6.61H179.1v-11h1.68v2.35A4.82,4.82,0,0,1,182.66,66a5.28,5.28,0,0,1,2.68-.7,3.23,3.23,0,0,1,1.57.35,2.61,2.61,0,0,1,1,1,4.43,4.43,0,0,1,.54,1.46,10.23,10.23,0,0,1,.15,1.82Z"/><path class="cls-2" d="M196,76.63a4.75,4.75,0,0,1-2.1-.46,5.13,5.13,0,0,1-1.66-1.24,5.37,5.37,0,0,1-1.08-1.8,6.09,6.09,0,0,1-.39-2.17,6.62,6.62,0,0,1,.36-2.19,5.9,5.9,0,0,1,1-1.82,5,5,0,0,1,1.58-1.23,4.48,4.48,0,0,1,2-.45,4.13,4.13,0,0,1,2.37.7,5.5,5.5,0,0,1,1.65,1.68V61.09h1.84V74.16c0,.43.2.65.59.67v1.59l-.47.07-.35,0a1.35,1.35,0,0,1-.95-.37,1.09,1.09,0,0,1-.41-.85v-.92A4.65,4.65,0,0,1,198.28,76,4.72,4.72,0,0,1,196,76.63Zm.44-1.59a3.32,3.32,0,0,0,1-.19,4,4,0,0,0,1-.53,3.58,3.58,0,0,0,.82-.78,2.5,2.5,0,0,0,.46-1V69.43a3.73,3.73,0,0,0-.57-1,5.07,5.07,0,0,0-.85-.82,4.1,4.1,0,0,0-1-.54,3.17,3.17,0,0,0-2.54.14,4,4,0,0,0-1.14.93,4.32,4.32,0,0,0-.72,1.32,4.7,4.7,0,0,0-.25,1.52,4.37,4.37,0,0,0,.29,1.57,4,4,0,0,0,.8,1.29,3.66,3.66,0,0,0,1.19.87A3.31,3.31,0,0,0,196.45,75Z"/><path class="cls-2" d="M109.36,99.61a6,6,0,0,1-7.3,1.47,7.49,7.49,0,0,1-2.19-1.71,8.28,8.28,0,0,1-1.46-2.43,7.59,7.59,0,0,1-.54-2.81,7.86,7.86,0,0,1,.53-2.87,7.73,7.73,0,0,1,1.45-2.39,6.64,6.64,0,0,1,2.2-1.65,6.34,6.34,0,0,1,2.77-.61,6.44,6.44,0,0,1,3.56.9,6,6,0,0,1,2.14,2.35l-1.45,1a4.54,4.54,0,0,0-1.79-1.93,5,5,0,0,0-2.5-.63,4.32,4.32,0,0,0-2.06.49,5.09,5.09,0,0,0-1.57,1.31,6.06,6.06,0,0,0-1,1.86,6.81,6.81,0,0,0-.36,2.2,6.51,6.51,0,0,0,.4,2.26,6.24,6.24,0,0,0,1.1,1.87,5,5,0,0,0,1.63,1.27A4.75,4.75,0,0,0,105,100a5.66,5.66,0,0,0,4.39-2.35V95.62h-3.21V94.19H111v7.43h-1.6Z"/><path class="cls-2" d="M119.34,92.28a4.85,4.85,0,0,0-2.45.71,3.61,3.61,0,0,0-1.5,1.87v6.76h-1.85v-11h1.72V93.2a5.29,5.29,0,0,1,1.49-1.83,3.68,3.68,0,0,1,2-.79h.35l.26,0Z"/><path class="cls-2" d="M124,101.83a3.82,3.82,0,0,1-1.45-.26,3.49,3.49,0,0,1-1.17-.72,3.29,3.29,0,0,1-.77-1.08,3.25,3.25,0,0,1-.29-1.36,2.76,2.76,0,0,1,.34-1.37,3.12,3.12,0,0,1,1-1.07,5.25,5.25,0,0,1,1.47-.69,6.49,6.49,0,0,1,1.86-.25,9,9,0,0,1,1.62.15,7.59,7.59,0,0,1,1.45.4v-.89a2.64,2.64,0,0,0-2.9-2.87,6.09,6.09,0,0,0-3.49,1.28L121,91.9a7.63,7.63,0,0,1,4.27-1.43,4.69,4.69,0,0,1,3.37,1.16,4.3,4.3,0,0,1,1.21,3.25v4.48c0,.43.19.65.58.67v1.59l-.48.07-.4,0a1.18,1.18,0,0,1-.87-.33,1.3,1.3,0,0,1-.39-.79l0-.77a4.69,4.69,0,0,1-1.86,1.5A5.74,5.74,0,0,1,124,101.83Zm.48-1.38a4.52,4.52,0,0,0,1.84-.37,3,3,0,0,0,1.29-1,1.16,1.16,0,0,0,.4-.81V96.67a7.65,7.65,0,0,0-2.8-.53,4,4,0,0,0-2.25.59,1.77,1.77,0,0,0-.87,1.53,2.29,2.29,0,0,0,.17.87,2.14,2.14,0,0,0,.51.69,2.53,2.53,0,0,0,.76.46A2.71,2.71,0,0,0,124.46,100.45Z"/><path class="cls-2" d="M138.7,101.83a4.35,4.35,0,0,1-2.41-.67,5.15,5.15,0,0,1-1.65-1.7v6.64H132.8V90.66h1.63v2.06a5.26,5.26,0,0,1,1.69-1.63,4.46,4.46,0,0,1,2.3-.62,4.77,4.77,0,0,1,2.08.46,5.3,5.3,0,0,1,1.64,1.25,6.07,6.07,0,0,1,1.47,4,6.71,6.71,0,0,1-.36,2.22,5.44,5.44,0,0,1-1,1.8,4.86,4.86,0,0,1-1.56,1.22A4.38,4.38,0,0,1,138.7,101.83Zm-.57-1.59a3.14,3.14,0,0,0,1.48-.35,3.6,3.6,0,0,0,1.13-.92,4.21,4.21,0,0,0,.73-1.31,4.61,4.61,0,0,0,.25-1.52,4.36,4.36,0,0,0-.29-1.56,4.18,4.18,0,0,0-.8-1.3,3.87,3.87,0,0,0-1.19-.89,3.48,3.48,0,0,0-1.48-.32,3.08,3.08,0,0,0-1,.2,5.08,5.08,0,0,0-1,.52,3.75,3.75,0,0,0-.81.78,2.24,2.24,0,0,0-.46,1v3.13a4.85,4.85,0,0,0,.59,1A4.13,4.13,0,0,0,137,100,3.1,3.1,0,0,0,138.13,100.24Z"/><path class="cls-2" d="M155.39,101.62h-1.85V95.49A4.42,4.42,0,0,0,153,93a2,2,0,0,0-1.73-.83,3.07,3.07,0,0,0-1.09.22,4.4,4.4,0,0,0-1,.6,4.53,4.53,0,0,0-.84.9,4,4,0,0,0-.55,1.16v6.61h-1.85V86.29h1.85V93a4.78,4.78,0,0,1,1.76-1.86,4.63,4.63,0,0,1,2.44-.68,3.39,3.39,0,0,1,1.63.36,2.89,2.89,0,0,1,1.08,1,4.28,4.28,0,0,1,.57,1.46,8.68,8.68,0,0,1,.18,1.81Z"/><path class="cls-2" d="M158.27,88.6V86.29h1.85V88.6Zm0,13v-11h1.85v11Z"/><path class="cls-2" d="M162.36,96.12a6.07,6.07,0,0,1,.4-2.18,5.41,5.41,0,0,1,1.14-1.8,5.42,5.42,0,0,1,4-1.67,5.24,5.24,0,0,1,2.82.73,4.74,4.74,0,0,1,1.8,1.94l-1.81.57a3,3,0,0,0-1.17-1.21,3.34,3.34,0,0,0-1.68-.43,3.46,3.46,0,0,0-1.43.3,3.63,3.63,0,0,0-1.16.85,4.23,4.23,0,0,0-.76,1.29,4.39,4.39,0,0,0-.29,1.61,4.32,4.32,0,0,0,.3,1.62,4.2,4.2,0,0,0,.79,1.31,3.5,3.5,0,0,0,1.15.87,3.25,3.25,0,0,0,1.42.32,3.41,3.41,0,0,0,1-.14,3.19,3.19,0,0,0,.86-.37,3.32,3.32,0,0,0,.69-.53,2,2,0,0,0,.42-.66l1.8.54a4,4,0,0,1-.7,1.12,4.7,4.7,0,0,1-1.06.86,5.71,5.71,0,0,1-1.36.56,5.65,5.65,0,0,1-1.56.21,5.45,5.45,0,0,1-2.27-.46,5.55,5.55,0,0,1-1.76-1.24,5.65,5.65,0,0,1-1.15-1.81A6.05,6.05,0,0,1,162.36,96.12Z"/><path class="cls-2" d="M180.34,101.62V86.71h5.17a7.84,7.84,0,0,1,3.13.59,6.34,6.34,0,0,1,2.26,1.6,6.67,6.67,0,0,1,1.36,2.36,9.11,9.11,0,0,1,.45,2.89,8.75,8.75,0,0,1-.51,3.07,6.33,6.33,0,0,1-3.72,3.87,7.85,7.85,0,0,1-3,.53Zm10.46-7.47a7.43,7.43,0,0,0-.35-2.32,4.78,4.78,0,0,0-2.7-3,5.66,5.66,0,0,0-2.24-.43h-3.28V99.94h3.28a5.44,5.44,0,0,0,2.27-.44,4.55,4.55,0,0,0,1.66-1.21,5.47,5.47,0,0,0,1-1.84A7.44,7.44,0,0,0,190.8,94.15Z"/><path class="cls-2" d="M199.93,101.83a5.64,5.64,0,0,1-2.27-.45,5.37,5.37,0,0,1-1.76-1.23,5.46,5.46,0,0,1-1.14-1.81,5.85,5.85,0,0,1-.41-2.2,5.71,5.71,0,0,1,.41-2.18,5.43,5.43,0,0,1,1.15-1.81,5.47,5.47,0,0,1,4-1.68,5.53,5.53,0,0,1,2.26.46,5.33,5.33,0,0,1,1.73,1.23A5.4,5.4,0,0,1,205.05,94a6.06,6.06,0,0,1,.38,2.11c0,.15,0,.29,0,.42a1.07,1.07,0,0,1,0,.29H196.3a4.14,4.14,0,0,0,.38,1.49,3.75,3.75,0,0,0,.82,1.16,3.64,3.64,0,0,0,1.14.75,3.3,3.3,0,0,0,1.35.28,3.64,3.64,0,0,0,1-.14,4.24,4.24,0,0,0,.91-.37,3.35,3.35,0,0,0,.74-.56,2.3,2.3,0,0,0,.49-.76l1.6.44a3.75,3.75,0,0,1-.75,1.11,4.73,4.73,0,0,1-1.09.88,5.8,5.8,0,0,1-1.37.57A5.91,5.91,0,0,1,199.93,101.83Zm3.76-6.42A3.85,3.85,0,0,0,203.3,94a3.61,3.61,0,0,0-.82-1.12,3.77,3.77,0,0,0-1.14-.73,3.81,3.81,0,0,0-1.39-.26,3.72,3.72,0,0,0-1.38.26,3.55,3.55,0,0,0-1.15.74,3.8,3.8,0,0,0-.8,1.12,4.12,4.12,0,0,0-.36,1.43Z"/><path class="cls-2" d="M211.33,101.83a8.26,8.26,0,0,1-2.6-.41,6.28,6.28,0,0,1-2.2-1.18l.79-1.24a7.65,7.65,0,0,0,1.94,1.1,5.54,5.54,0,0,0,2,.37,3.4,3.4,0,0,0,1.9-.47,1.53,1.53,0,0,0,.71-1.34,1.26,1.26,0,0,0-.19-.68,1.64,1.64,0,0,0-.57-.49,4.36,4.36,0,0,0-1-.38l-1.36-.36c-.66-.17-1.23-.33-1.7-.48a4.48,4.48,0,0,1-1.18-.55,1.9,1.9,0,0,1-.67-.75,2.55,2.55,0,0,1-.21-1.09,3.11,3.11,0,0,1,.33-1.46,3,3,0,0,1,.89-1.08,4.23,4.23,0,0,1,1.33-.65,6.21,6.21,0,0,1,1.65-.22,6.67,6.67,0,0,1,2.31.4,5.9,5.9,0,0,1,1.81,1L214.53,93a4.66,4.66,0,0,0-1.56-.92,5.29,5.29,0,0,0-1.76-.3,3.19,3.19,0,0,0-1.71.43,1.48,1.48,0,0,0-.71,1.37,1.28,1.28,0,0,0,.14.63,1.12,1.12,0,0,0,.45.44,3.46,3.46,0,0,0,.81.34c.33.1.72.2,1.19.31.72.17,1.36.34,1.9.52a5.59,5.59,0,0,1,1.34.62,2.45,2.45,0,0,1,.8.84,2.48,2.48,0,0,1,.26,1.18,2.91,2.91,0,0,1-1.17,2.43A5.13,5.13,0,0,1,211.33,101.83Z"/><path class="cls-2" d="M217.87,88.6V86.29h1.84V88.6Zm0,13v-11h1.84v11Z"/><path class="cls-2" d="M227.06,101.75a4.49,4.49,0,0,1-2-.46,5,5,0,0,1-1.61-1.24,5.5,5.5,0,0,1-1-1.79,6,6,0,0,1-.37-2.1,6.38,6.38,0,0,1,.37-2.19,5.54,5.54,0,0,1,1-1.82A5,5,0,0,1,225,90.92a4.68,4.68,0,0,1,2.06-.45,4.21,4.21,0,0,1,2.4.68,6,6,0,0,1,1.7,1.7V90.66h1.64V101.5a4.7,4.7,0,0,1-.44,2.07,4.63,4.63,0,0,1-1.2,1.5,5.37,5.37,0,0,1-1.78.92,7.25,7.25,0,0,1-2.17.32,6.31,6.31,0,0,1-3-.64,5.62,5.62,0,0,1-1.95-1.78l1.08-.94A4.13,4.13,0,0,0,225,104.4a5.15,5.15,0,0,0,2.22.48,4.92,4.92,0,0,0,1.44-.21,3.48,3.48,0,0,0,1.19-.63,3.12,3.12,0,0,0,.8-1.05,3.31,3.31,0,0,0,.31-1.49V99.57a4.66,4.66,0,0,1-.75.91,4.49,4.49,0,0,1-.93.69,4.14,4.14,0,0,1-1.07.43A4.5,4.5,0,0,1,227.06,101.75Zm.57-1.51a3.1,3.1,0,0,0,1.13-.21,4.14,4.14,0,0,0,1-.56,3.44,3.44,0,0,0,.78-.79,2.45,2.45,0,0,0,.42-.9V94.63a4.37,4.37,0,0,0-1.43-1.84,3.56,3.56,0,0,0-1-.53,3.25,3.25,0,0,0-2.58.17,3.39,3.39,0,0,0-1.12.94,4.5,4.5,0,0,0-.72,1.33,4.93,4.93,0,0,0-.25,1.51A4.28,4.28,0,0,0,225,99a3.66,3.66,0,0,0,1.19.87A3.34,3.34,0,0,0,227.63,100.24Z"/><path class="cls-2" d="M245.31,101.62h-1.85V95.49a4.7,4.7,0,0,0-.53-2.56,1.84,1.84,0,0,0-1.63-.8,3.24,3.24,0,0,0-1.13.22,4.51,4.51,0,0,0-1.07.6,4.22,4.22,0,0,0-.89.9,3.78,3.78,0,0,0-.56,1.16v6.61H235.8v-11h1.68V93a4.76,4.76,0,0,1,1.88-1.84,5.28,5.28,0,0,1,2.68-.7,3.23,3.23,0,0,1,1.57.35,2.61,2.61,0,0,1,1,1,4.21,4.21,0,0,1,.53,1.46,9.34,9.34,0,0,1,.16,1.82Z"/></g></g></svg>